<svg width="12" height="12" viewBox="0 0 12 12" fill="none" xmlns="http://www.w3.org/2000/svg">
<path d="M12 1.42342C11.5587 1.66396 11.0846 1.82649 10.5863 1.89995C11.1005 1.52145 11.4852 0.925741 11.6686 0.223974C11.1855 0.576974 10.6567 0.825448 10.1053 0.958593C9.73454 0.471576 9.2434 0.148773 8.70818 0.0403016C8.17295 -0.06817 7.62359 0.0437586 7.14537 0.35871C6.66716 0.673661 6.28685 1.17401 6.0635 1.78209C5.84015 2.39016 5.78624 3.07193 5.91016 3.72154C4.93122 3.66108 3.97355 3.34809 3.09932 2.80288C2.22508 2.25767 1.4538 1.49244 0.83555 0.556828C0.624152 1.0054 0.502598 1.52549 0.502598 2.07938C0.502363 2.578 0.602184 3.069 0.793206 3.50879C0.984229 3.94858 1.26055 4.32357 1.59764 4.60049C1.2067 4.58519 0.824385 4.45524 0.482516 4.22148V4.26048C0.482476 4.95983 0.679133 5.63765 1.03912 6.17894C1.3991 6.72023 1.90024 7.09165 2.4575 7.23017C2.09484 7.3509 1.71462 7.36869 1.34555 7.28218C1.50277 7.88392 1.80903 8.41013 2.22146 8.78712C2.63388 9.16412 3.13182 9.37303 3.64556 9.38462C2.77345 10.2268 1.69641 10.6836 0.587686 10.6816C0.391287 10.6816 0.195055 10.6675 0 10.6393C1.12542 11.5294 2.43548 12.0018 3.77345 12C8.30265 12 10.7786 7.38554 10.7786 3.38349C10.7786 3.25347 10.776 3.12215 10.7712 2.99213C11.2529 2.56369 11.6686 2.03315 11.9989 1.42537L12 1.42342Z" fill="#F24E1E"/>
</svg>
