<svg width="48" height="51" viewBox="0 0 48 51" fill="none" xmlns="http://www.w3.org/2000/svg">
<g clip-path="url(#clip0_19_54)">
<path d="M45 38.25C45 39.0954 44.6839 39.9061 44.1213 40.5039C43.5587 41.1017 42.7957 41.4375 42 41.4375H6C5.20435 41.4375 4.44129 41.1017 3.87868 40.5039C3.31607 39.9061 3 39.0954 3 38.25V19.125C3 18.2796 3.31607 17.4689 3.87868 16.8711C4.44129 16.2733 5.20435 15.9375 6 15.9375H9.516C11.9017 15.9361 14.1893 14.9283 15.876 13.1357L18.366 10.4964C18.927 9.90018 19.6875 9.56437 20.481 9.5625H27.513C28.3086 9.56268 29.0715 9.89862 29.634 10.4964L32.118 13.1357C32.9539 14.0241 33.9463 14.7288 35.0386 15.2095C36.1309 15.6903 37.3017 15.9377 38.484 15.9375H42C42.7957 15.9375 43.5587 16.2733 44.1213 16.8711C44.6839 17.4689 45 18.2796 45 19.125V38.25ZM6 12.75C4.4087 12.75 2.88258 13.4216 1.75736 14.6172C0.632141 15.8127 0 17.4342 0 19.125L0 38.25C0 39.9408 0.632141 41.5623 1.75736 42.7578C2.88258 43.9534 4.4087 44.625 6 44.625H42C43.5913 44.625 45.1174 43.9534 46.2426 42.7578C47.3679 41.5623 48 39.9408 48 38.25V19.125C48 17.4342 47.3679 15.8127 46.2426 14.6172C45.1174 13.4216 43.5913 12.75 42 12.75H38.484C36.8928 12.7496 35.367 12.0778 34.242 10.8821L31.758 8.24287C30.633 7.04725 29.1072 6.37536 27.516 6.375H20.484C18.8928 6.37536 17.367 7.04725 16.242 8.24287L13.758 10.8821C12.633 12.0778 11.1072 12.7496 9.516 12.75H6Z" fill="black"/>
<path d="M24 35.0625C22.0109 35.0625 20.1032 34.2229 18.6967 32.7285C17.2902 31.2341 16.5 29.2072 16.5 27.0938C16.5 24.9803 17.2902 22.9534 18.6967 21.459C20.1032 19.9646 22.0109 19.125 24 19.125C25.9891 19.125 27.8968 19.9646 29.3033 21.459C30.7098 22.9534 31.5 24.9803 31.5 27.0938C31.5 29.2072 30.7098 31.2341 29.3033 32.7285C27.8968 34.2229 25.9891 35.0625 24 35.0625ZM24 38.25C26.7848 38.25 29.4555 37.0746 31.4246 34.9824C33.3938 32.8902 34.5 30.0526 34.5 27.0938C34.5 24.1349 33.3938 21.2973 31.4246 19.2051C29.4555 17.1129 26.7848 15.9375 24 15.9375C21.2152 15.9375 18.5445 17.1129 16.5754 19.2051C14.6062 21.2973 13.5 24.1349 13.5 27.0938C13.5 30.0526 14.6062 32.8902 16.5754 34.9824C18.5445 37.0746 21.2152 38.25 24 38.25ZM9 20.7188C9 21.1414 8.84196 21.5468 8.56066 21.8457C8.27936 22.1446 7.89782 22.3125 7.5 22.3125C7.10218 22.3125 6.72064 22.1446 6.43934 21.8457C6.15804 21.5468 6 21.1414 6 20.7188C6 20.2961 6.15804 19.8907 6.43934 19.5918C6.72064 19.2929 7.10218 19.125 7.5 19.125C7.89782 19.125 8.27936 19.2929 8.56066 19.5918C8.84196 19.8907 9 20.2961 9 20.7188Z" fill="black"/>
</g>
<defs>
<clipPath id="clip0_19_54">
<rect width="48" height="51" fill="white"/>
</clipPath>
</defs>
</svg>
