<svg width="12" height="12" viewBox="0 0 12 12" fill="none" xmlns="http://www.w3.org/2000/svg">
<path d="M6 10.5C5.36847 9.9613 4.7831 9.37074 4.25 8.73449C3.45 7.77899 2.5 6.35598 2.5 4.99998C2.49965 4.30747 2.70475 3.63041 3.08935 3.0545C3.47394 2.47859 4.02074 2.02971 4.66053 1.76468C5.30033 1.49965 6.00437 1.43038 6.68356 1.56563C7.36274 1.70088 7.98654 2.03458 8.476 2.52448C8.80188 2.84891 9.06017 3.23475 9.23594 3.65967C9.41171 4.08459 9.50146 4.54015 9.5 4.99998C9.5 6.35598 8.55 7.77899 7.75 8.73449C7.2169 9.37074 6.63153 9.9613 6 10.5ZM6 3.49998C5.60218 3.49998 5.22064 3.65802 4.93934 3.93932C4.65804 4.22063 4.5 4.60216 4.5 4.99998C4.5 5.39781 4.65804 5.77934 4.93934 6.06065C5.22064 6.34195 5.60218 6.49999 6 6.49999C6.39783 6.49999 6.77936 6.34195 7.06066 6.06065C7.34197 5.77934 7.5 5.39781 7.5 4.99998C7.5 4.60216 7.34197 4.22063 7.06066 3.93932C6.77936 3.65802 6.39783 3.49998 6 3.49998Z" fill="#33FF00"/>
</svg>
