<svg width="141" height="162" viewBox="0 0 141 162" fill="none" xmlns="http://www.w3.org/2000/svg">
<path fill-rule="evenodd" clip-rule="evenodd" d="M96.1365 58.9091C96.1365 66.7209 93.4355 74.2128 88.6278 79.7366C83.82 85.2604 77.2993 88.3636 70.5001 88.3636C63.7009 88.3636 57.1802 85.2604 52.3725 79.7366C47.5647 74.2128 44.8638 66.7209 44.8638 58.9091C44.8638 51.0972 47.5647 43.6054 52.3725 38.0816C57.1802 32.5578 63.7009 29.4545 70.5001 29.4545C77.2993 29.4545 83.82 32.5578 88.6278 38.0816C93.4355 43.6054 96.1365 51.0972 96.1365 58.9091ZM83.3183 58.9091C83.3183 62.815 81.9678 66.5609 79.564 69.3228C77.1601 72.0847 73.8997 73.6363 70.5001 73.6363C67.1005 73.6363 63.8402 72.0847 61.4363 69.3228C59.0324 66.5609 57.682 62.815 57.682 58.9091C57.682 55.0032 59.0324 51.2572 61.4363 48.4953C63.8402 45.7334 67.1005 44.1818 70.5001 44.1818C73.8997 44.1818 77.1601 45.7334 79.564 48.4953C81.9678 51.2572 83.3183 55.0032 83.3183 58.9091Z" fill="white"/>
<path fill-rule="evenodd" clip-rule="evenodd" d="M70.5 0C31.5648 0 0 36.2659 0 81C0 125.734 31.5648 162 70.5 162C109.435 162 141 125.734 141 81C141 36.2659 109.435 0 70.5 0ZM12.8182 81C12.8182 96.39 17.3879 110.558 25.0467 121.809C30.4254 113.694 37.3644 107.117 45.3215 102.592C53.2786 98.068 62.0384 95.7184 70.9166 95.7273C79.6799 95.7177 88.3295 98.0065 96.2064 102.419C104.083 106.832 110.98 113.252 116.37 121.191C121.923 112.823 125.662 103.056 127.277 92.6978C128.893 82.3399 128.338 71.6889 125.66 61.6262C122.981 51.5634 118.256 42.3781 111.874 34.8303C105.492 27.2825 97.6377 21.5891 88.9606 18.2214C80.2836 14.8536 71.0332 13.9082 61.975 15.4634C52.9168 17.0186 44.3111 21.0297 36.87 27.1648C29.4289 33.3 23.3663 41.3827 19.1839 50.7443C15.0014 60.1058 12.8193 70.4771 12.8182 81ZM70.5 147.273C57.2585 147.296 44.4167 142.062 34.1476 132.457C38.2811 125.659 43.7827 120.108 50.1844 116.277C56.5862 112.446 63.6986 110.449 70.9166 110.455C78.0445 110.448 85.071 112.395 91.4124 116.135C97.7538 119.875 103.227 125.299 107.378 131.956C97.0291 141.873 83.9757 147.294 70.5 147.273Z" fill="white"/>
</svg>
